<?xml version="1.0" encoding="utf-8"?>
<!-- Generator: Adobe Illustrator 23.0.3, SVG Export Plug-In . SVG Version: 6.00 Build 0)  -->
<svg version="1.1" id="Layer_1" xmlns="http://www.w3.org/2000/svg" xmlns:xlink="http://www.w3.org/1999/xlink" x="0px" y="0px"
	 viewBox="0 0 398.8 152.5" style="enable-background:new 0 0 398.8 152.5;" xml:space="preserve">
<style type="text/css">
	.st0{display:none;}
	.st1{fill:#1D468B;}
	.st2{fill:#FFFFFF;}
</style>
<image style="display:none;overflow:visible;" width="1920" height="862" xlink:href="14730A35.jpg"  transform="matrix(0.9999 0 0 0.9999 0 -2.7993)">
</image>
<image style="display:none;overflow:visible;" width="1920" height="862" xlink:href="14730A37.jpg"  transform="matrix(0.9999 0 0 0.9999 0 -2.7993)">
</image>
<image style="display:none;overflow:visible;" width="1920" height="862" xlink:href="14730A32.jpg"  transform="matrix(0.9999 0 0 0.9999 0 -2.7993)">
</image>
<image style="display:none;overflow:visible;" width="1920" height="657" xlink:href="14730A33.jpg"  transform="matrix(0.9999 0 0 0.9999 0 -2.7993)">
</image>
<image style="display:none;overflow:visible;" width="1920" height="657" xlink:href="14730A3D.jpg"  transform="matrix(0.9999 0 0 0.9999 0 -2.7993)">
</image>
<image style="display:none;overflow:visible;" width="1920" height="657" xlink:href="14730A3F.jpg"  transform="matrix(0.9999 0 0 0.9999 0 -2.7993)">
</image>
<image style="display:none;overflow:visible;" width="1920" height="657" xlink:href="14730A30.jpg"  transform="matrix(0.9999 0 0 0.9999 0 -2.7993)">
</image>
<image style="display:none;overflow:visible;" width="1920" height="748" xlink:href="14730A31.jpg"  transform="matrix(0.9999 0 0 0.9999 0 0)">
</image>
<image style="display:none;overflow:visible;" width="1920" height="748" xlink:href="14730A36.jpg"  transform="matrix(0.9999 0 0 0.9999 0 0)">
</image>
<image style="display:none;overflow:visible;" width="1920" height="709" xlink:href="F4A079BE.jpg"  transform="matrix(0.9999 0 0 0.9999 0 0)">
</image>
<rect x="1072.4" y="560" style="fill:none;" width="351.3" height="40.5"/>
<text transform="matrix(1 0 0 1 1072.4355 589.8368)" class="st0"><tspan x="0" y="0" style="display:inline;fill:#D61F36; font-family:'Tungsten-Bold'; font-size:42px;">+</tspan><tspan x="13.2" y="0" style="display:inline;fill:#D61F36; font-family:'Tungsten-Bold'; font-size:42px;"> Working Load Limit (WLL)</tspan></text>
<g class="st0">
</g>
<g>
	<path class="st1" d="M398.8,0c0,50.9,0,101.6,0,152.5c-132.9,0-265.8,0-398.8,0C0,101.7,0,50.9,0,0C132.9,0,265.8,0,398.8,0z
		 M385.5,60.5c-0.2-1.6-0.2-2.8-0.4-4c-0.5-4-2.1-7.4-4.9-10.3c-3.6-3.8-8.2-6.1-13.1-7.7c-4.4-1.4-8.9-2.5-13.5-3.6
		c-3.6-0.8-7.2-1.3-10.8-2c-3.1-0.5-6.2-1-9.2-1.5c-3.2-0.5-6.4-1.1-9.6-1.6c-3.4-0.5-6.8-1-10.2-1.5c-3.5-0.5-7-1.1-10.5-1.7
		c-4.2-0.6-8.5-1.2-12.7-1.7c-4.1-0.5-8.2-1-12.3-1.4c-3.9-0.4-7.9-0.8-11.8-1.2c-2.7-0.3-5.4-0.5-8.1-0.7c-3.3-0.3-6.7-0.5-10-0.7
		c-2.6-0.2-5.2-0.3-7.8-0.5c-3.8-0.2-7.6-0.3-11.4-0.5c-2.6-0.1-5.2-0.2-7.7-0.2c-13.9,0.1-27.8,0.1-41.7,0.2
		c-2.7,0-5.4,0.1-8.1,0.2c-3.5,0.1-7,0.3-10.5,0.5c-3.8,0.2-7.6,0.5-11.4,0.7c-3.5,0.2-7,0.5-10.5,0.7c-1,0.1-2,0.2-3.1,0.3
		c-2.8,0.3-5.6,0.6-8.4,0.9c-1.8,0.2-3.6,0.3-5.4,0.5c-2.6,0.3-5.1,0.6-7.7,0.9c-1.5,0.2-3,0.3-4.4,0.5c-2.7,0.4-5.4,0.8-8.1,1.1
		c-2,0.3-4,0.5-6.1,0.8c-2.4,0.4-4.9,0.8-7.3,1.1c-2.4,0.4-4.7,0.6-7.1,1c-3.2,0.5-6.4,1.1-9.6,1.6c-3.6,0.6-7.2,1.1-10.8,1.7
		c-4.6,0.8-9.1,1.7-13.6,2.6c-6.3,1.3-12.4,2.9-18.1,5.9c-4.4,2.4-8.1,5.5-10.2,10.2c-1.3,2.9-1.6,5.9-1.7,9c0,1.8,0.3,3.6,0.4,5.4
		c0.2,1.7,0.3,3.4,0.5,5.2c0.3,2.9,0.6,5.9,0.9,8.8c0.2,1.9,0.3,3.8,0.5,5.6c0.3,2.9,0.6,5.8,0.9,8.7c0.2,1.8,0.3,3.6,0.6,5.4
		c0.5,3.2,2.8,5.4,5.1,7.2c4.3,3.4,9.3,5.6,14.5,7.2c5.5,1.7,11,3.3,16.5,4.8c4.3,1.1,8.7,1.9,13,2.7c4.4,0.8,8.8,1.5,13.3,2.2
		c4.2,0.7,8.5,1.3,12.8,1.9c4.2,0.6,8.3,1,12.5,1.4c4,0.4,8.1,0.8,12.1,1.2c3.8,0.3,7.5,0.7,11.3,1c3.2,0.3,6.4,0.5,9.6,0.7
		c3.8,0.3,7.7,0.5,11.5,0.7c2.9,0.2,5.8,0.3,8.8,0.5c3.6,0.2,7.3,0.3,10.9,0.5c2.2,0.1,4.4,0.2,6.7,0.2c3.1,0.1,6.1,0.2,9.2,0.2
		c9.3,0,18.6-0.1,27.9-0.2c4.8-0.1,9.5-0.3,14.3-0.5c3.3-0.1,6.6-0.3,10-0.5c4.1-0.2,8.2-0.5,12.3-0.7c3-0.2,6-0.3,9-0.5
		c1.1-0.1,2.3-0.1,3.4-0.2c3.4-0.3,6.9-0.6,10.3-0.9c2-0.2,4-0.3,6-0.5c3.4-0.4,6.8-0.8,10.2-1.2c2.4-0.3,4.9-0.4,7.3-0.7
		c4-0.5,7.9-1.1,11.9-1.7c3.9-0.6,7.8-1,11.7-1.7c5.2-0.9,10.5-1.9,15.7-3.1c5.9-1.3,11.9-2.8,17.7-4.5c4-1.2,7.8-2.8,11.6-4.4
		c3.2-1.3,6.1-3.1,8.7-5.4c2.4-2.1,4.1-4.6,4.2-8.1c0.1-3,0.6-6,0.9-9c0.2-1.6,0.3-3.3,0.5-4.9c0.3-2.6,0.6-5.2,0.9-7.8
		c0.2-1.8,0.3-3.7,0.5-5.5C384.8,66.7,385.2,63.4,385.5,60.5z"/>
	<path class="st2" d="M385.5,60.5c-0.3,2.9-0.7,6.3-1.1,9.6c-0.2,1.8-0.3,3.7-0.5,5.5c-0.3,2.6-0.6,5.2-0.9,7.8
		c-0.2,1.6-0.3,3.3-0.5,4.9c-0.3,3-0.8,6-0.9,9c-0.1,3.4-1.8,5.9-4.2,8.1c-2.6,2.3-5.5,4.1-8.7,5.4c-3.8,1.6-7.7,3.2-11.6,4.4
		c-5.8,1.7-11.8,3.1-17.7,4.5c-5.2,1.2-10.4,2.2-15.7,3.1c-3.9,0.7-7.8,1.2-11.7,1.7c-3.9,0.6-7.9,1.2-11.9,1.7
		c-2.4,0.3-4.9,0.5-7.3,0.7c-3.4,0.4-6.8,0.8-10.2,1.2c-2,0.2-4,0.3-6,0.5c-3.4,0.3-6.9,0.6-10.3,0.9c-1.1,0.1-2.3,0.2-3.4,0.2
		c-3,0.2-6,0.3-9,0.5c-4.1,0.2-8.2,0.5-12.3,0.7c-3.3,0.2-6.6,0.3-10,0.5c-4.8,0.2-9.5,0.4-14.3,0.5c-9.3,0.1-18.6,0.2-27.9,0.2
		c-3.1,0-6.1-0.1-9.2-0.2c-2.2-0.1-4.4-0.1-6.7-0.2c-3.6-0.2-7.3-0.3-10.9-0.5c-2.9-0.1-5.8-0.3-8.8-0.5c-3.8-0.2-7.7-0.5-11.5-0.7
		c-3.2-0.2-6.4-0.5-9.6-0.7c-3.8-0.3-7.5-0.6-11.3-1c-4-0.4-8.1-0.8-12.1-1.2c-4.2-0.4-8.3-0.9-12.5-1.4c-4.3-0.6-8.5-1.2-12.8-1.9
		c-4.4-0.7-8.9-1.4-13.3-2.2c-4.4-0.8-8.7-1.6-13-2.7c-5.6-1.4-11.1-3-16.5-4.8c-5.2-1.6-10.2-3.8-14.5-7.2c-2.4-1.9-4.6-4-5.1-7.2
		c-0.3-1.8-0.4-3.6-0.6-5.4c-0.3-2.9-0.6-5.8-0.9-8.7c-0.2-1.9-0.3-3.8-0.5-5.6c-0.3-2.9-0.6-5.9-0.9-8.8c-0.2-1.7-0.3-3.4-0.5-5.2
		c-0.2-1.8-0.5-3.6-0.4-5.4c0.1-3.1,0.4-6.2,1.7-9c2.1-4.7,5.8-7.8,10.2-10.2c5.7-3,11.8-4.7,18.1-5.9c4.5-0.9,9.1-1.8,13.6-2.6
		c3.6-0.6,7.2-1.1,10.8-1.7c3.2-0.5,6.4-1.1,9.6-1.6c2.4-0.4,4.7-0.7,7.1-1c2.4-0.4,4.9-0.8,7.3-1.1c2-0.3,4-0.5,6.1-0.8
		c2.7-0.4,5.4-0.8,8.1-1.1c1.5-0.2,3-0.4,4.4-0.5c2.6-0.3,5.1-0.7,7.7-0.9c1.8-0.2,3.6-0.3,5.4-0.5c2.8-0.3,5.6-0.6,8.4-0.9
		c1-0.1,2-0.2,3.1-0.3c3.5-0.2,7-0.5,10.5-0.7c3.8-0.2,7.6-0.5,11.4-0.7c3.5-0.2,7-0.3,10.5-0.5c2.7-0.1,5.4-0.2,8.1-0.2
		c13.9-0.1,27.8-0.2,41.7-0.2c2.6,0,5.2,0.1,7.7,0.2c3.8,0.1,7.6,0.3,11.4,0.5c2.6,0.1,5.2,0.3,7.8,0.5c3.3,0.2,6.7,0.5,10,0.7
		c2.7,0.2,5.4,0.5,8.1,0.7c4,0.4,7.9,0.8,11.8,1.2c4.1,0.4,8.2,0.9,12.3,1.4c4.2,0.5,8.5,1.1,12.7,1.7c3.5,0.5,7,1.1,10.5,1.7
		c3.4,0.5,6.8,0.9,10.2,1.5c3.2,0.5,6.4,1.1,9.6,1.6c3.1,0.5,6.2,1,9.2,1.5c3.6,0.6,7.2,1.1,10.8,2c4.5,1,9,2.2,13.5,3.6
		c4.9,1.5,9.5,3.9,13.1,7.7c2.7,2.9,4.4,6.3,4.9,10.3C385.3,57.7,385.4,58.9,385.5,60.5z M223.7,75.6c-0.3-0.4-0.4-0.5-0.5-0.6
		c-2.2-5.7-4.3-11.4-6.6-17.1c-1.2-3.1-3.1-5.8-6.2-7.4c-2.1-1.1-4.4-1-6.6-0.8c-2.8,0.3-5.1,1.5-6.8,3.9c-1.7,2.4-2,5.1-2.4,7.8
		c-0.4,2.6-0.8,5.2-1.3,7.9c-0.5,3.2-1.1,6.3-1.6,9.5c-0.4,2.6-0.9,5.2-1.3,7.9c-0.4,3.3-1,6.5-1.1,9.8c-0.1,2.4,1.2,4.5,3.5,5.6
		c1.6,0.8,3.3,1.1,5,0.9c4.2-0.4,6.5-2.4,7.4-6.3c1.1-4.6,1.7-9.4,2.5-14c0.3-1.9,0.7-3.9,1.1-6c0.3,0.3,0.5,0.4,0.6,0.6
		c0.9,2.2,1.7,4.5,2.7,6.7c1.3,3.2,2.5,6.4,3.9,9.4c1.5,3,4.1,4.6,7.5,4.6c3.8,0,6.5-1.9,8-5.3c2.1-4.9,4-10,6-15
		c0.1-0.3,0.4-0.6,0.8-1.2c0.3,2,0.6,3.5,0.9,5.1c0.3,1.6,0.5,3.2,0.7,4.7c0.5,3.1,1.1,6.2,1.7,9.3c0.5,2.3,1.2,4.5,3.4,5.9
		c2.2,1.4,4.5,1.7,7.1,1.3c3.5-0.6,5.8-3.4,5.8-6.6c0-2.6-0.4-5.2-0.7-7.7c-0.5-3.2-1.1-6.3-1.6-9.5c-0.5-3.1-1-6.2-1.5-9.2
		c-0.5-3.2-1-6.4-1.7-9.6c-0.4-1.9-0.6-3.9-1.5-5.6c-2.6-4.8-7.4-5.4-11.9-4.7c-3.8,0.6-6.2,3.2-7.7,6.5c-1.8,4.2-3.3,8.5-5,12.8
		C225.4,71.2,224.6,73.2,223.7,75.6z M260,74.3c0.1,1.4,0.2,2.8,0.4,4.3c0.8,6.7,4.1,12.1,9.3,16.2c5,4,10.9,5.7,17.2,5.9
		c1.5,0.1,3-0.1,4.5-0.2c3.5-0.2,6.9-1,10-2.5c3.7-1.7,6.9-4.1,9.5-7.3c1.7-2.1,2.9-4.3,3.9-6.7c1.5-3.7,1.8-7.5,1.7-11.4
		c-0.1-3.1-0.8-6-2.1-8.8c-1.5-3.3-3.7-6.1-6.4-8.6c-2.5-2.2-5.2-3.8-8.2-5c-3-1.1-6-1.7-9.2-2c-3-0.3-5.8,0-8.7,0.4
		c-3,0.5-5.8,1.5-8.4,3.1c-4.5,2.6-8.3,6.1-10.7,10.8C260.8,66.1,259.8,70,260,74.3z M139.2,95.5c-0.1-0.6,0-1.2-0.2-1.8
		c-1.1-3.3-2.2-6.5-3.4-9.7c-2.1-5.7-4.3-11.4-6.5-17c-1.5-3.8-2.9-7.6-4.6-11.3c-1.2-2.7-3.4-4.4-6.1-5.4c-2.2-0.8-4.5-0.7-6.8-0.7
		c-5.2,0-8.9,2.5-10.8,7.2c-2.3,5.3-4.1,10.8-6.2,16.1c-2.1,5.5-4.3,11-6.3,16.5c-0.7,1.8-1.4,3.7-1.5,5.6c-0.4,4.5,3,7.6,7.5,7.9
		c3.8,0.3,6.4-1.7,8.1-4.8c1.1-2,1.9-4.1,2.8-6.3c0.2-0.5,0.5-0.8,1.1-0.8c4.5,0,9,0,13.4,0c0.4,0,0.9,0.3,1,0.6
		c0.9,1.9,1.5,3.8,2.5,5.6c2.2,4.2,5.8,6.2,10.2,5.2C136.6,101.9,139.4,98.8,139.2,95.5z M160,86.8c2.2,0,4.3,0,6.4,0
		c3.9,0.1,7.7-0.5,11.3-1.9c3.4-1.4,6.4-3.3,8.5-6.5c2.4-3.7,3.3-7.7,2.7-12.1c-0.6-4.3-2.6-7.7-5.9-10.4c-4.3-3.5-9.5-4.9-14.9-4.9
		c-5.8-0.1-11.5-0.1-17.3,0c-4.3,0-7.1,2.8-7.1,7.1c0,12.4,0,24.9,0,37.3c0,3.1,1.9,6.3,5.2,7c2.6,0.6,5,0.6,7.4-0.5
		c2.7-1.3,3.6-3.7,3.7-6.5C160.1,92.6,160,89.8,160,86.8z M62.6,87.3c0-0.6,0-1,0-1.4c0-8.6,0-17.2,0-25.8c0-1.3-0.1-2.7-0.2-4
		c-0.3-2.5-1.7-4-3.9-5.1c-1.8-0.9-3.6-0.7-5.5-0.6c-4,0.2-6.6,2.7-6.7,6.7c-0.1,12.7-0.1,25.4,0,38.1c0,1.2,0.4,2.4,0.9,3.4
		c1.4,2.5,3.9,3.5,6.6,3.5c6.1,0.1,12.2,0,18.4,0c1,0,2-0.1,3.1-0.2c5.8-0.7,7.1-6.2,5.5-10.4c-0.3-0.8-0.9-1.7-1.6-2.3
		c-1.8-1.6-3.9-1.9-6.2-1.9C69.5,87.3,66.1,87.3,62.6,87.3z M337.8,87.3c0-0.6,0-1,0-1.4c0-9.7,0-19.4,0-29.1c0-2.4-1.2-4.3-3.3-5.4
		c-2.7-1.4-5.6-1.4-8.4-0.4c-2.8,0.9-4.2,3.1-4.2,5.5c-0.1,13.2-0.1,26.3,0,39.5c0,1.9,0.9,3.6,2.5,4.8c1.6,1.1,3.3,1.6,5.2,1.6
		c6,0,12,0,18,0c1.1,0,2.3-0.1,3.4-0.2c2.5-0.4,4.5-1.7,5.4-4.2c1-2.8,0.8-5.6-1.2-8c-1.6-1.8-3.8-2.3-6-2.4
		C345.4,87.2,341.7,87.3,337.8,87.3z"/>
	<path class="st1" d="M223.7,75.6c0.9-2.3,1.8-4.4,2.6-6.5c1.7-4.3,3.2-8.6,5-12.8c1.5-3.3,3.9-5.9,7.7-6.5
		c4.6-0.7,9.3-0.1,11.9,4.7c0.9,1.6,1.2,3.7,1.5,5.6c0.6,3.2,1.1,6.4,1.7,9.6c0.5,3.1,1,6.2,1.5,9.2c0.5,3.2,1.1,6.3,1.6,9.5
		c0.4,2.6,0.7,5.2,0.7,7.7c0,3.2-2.4,6-5.8,6.6c-2.6,0.4-4.9,0.1-7.1-1.3c-2.1-1.4-2.9-3.6-3.4-5.9c-0.6-3.1-1.1-6.2-1.7-9.3
		c-0.3-1.6-0.5-3.2-0.7-4.7c-0.3-1.5-0.5-3.1-0.9-5.1c-0.4,0.6-0.7,0.9-0.8,1.2c-2,5-3.9,10-6,15c-1.5,3.4-4.2,5.3-8,5.3
		c-3.4,0-6-1.6-7.5-4.6c-1.5-3.1-2.7-6.3-3.9-9.4c-0.9-2.2-1.8-4.5-2.7-6.7c-0.1-0.2-0.3-0.3-0.6-0.6c-0.4,2.2-0.7,4.1-1.1,6
		c-0.8,4.7-1.4,9.4-2.5,14c-0.9,3.9-3.2,5.9-7.4,6.3c-1.7,0.2-3.4-0.2-5-0.9c-2.4-1.2-3.6-3.2-3.5-5.6c0.1-3.3,0.6-6.6,1.1-9.8
		c0.4-2.6,0.8-5.2,1.3-7.9c0.5-3.2,1.1-6.3,1.6-9.5c0.4-2.6,0.8-5.2,1.3-7.9c0.5-2.7,0.7-5.5,2.4-7.8c1.7-2.4,4-3.6,6.8-3.9
		c2.2-0.2,4.5-0.3,6.6,0.8c3.1,1.6,5,4.3,6.2,7.4c2.3,5.7,4.4,11.4,6.6,17.1C223.2,75.1,223.4,75.2,223.7,75.6z"/>
	<path class="st1" d="M260,74.3c-0.2-4.3,0.8-8.3,2.8-12c2.4-4.7,6.2-8.1,10.7-10.8c2.6-1.5,5.4-2.6,8.4-3.1
		c2.9-0.4,5.7-0.7,8.7-0.4c3.2,0.3,6.3,0.9,9.2,2c3,1.2,5.8,2.8,8.2,5c2.7,2.4,4.9,5.2,6.4,8.6c1.3,2.8,2,5.7,2.1,8.8
		c0.2,3.9-0.1,7.8-1.7,11.4c-1,2.4-2.3,4.7-3.9,6.7c-2.6,3.2-5.8,5.6-9.5,7.3c-3.2,1.5-6.5,2.4-10,2.5c-1.5,0.1-3,0.3-4.5,0.2
		c-6.3-0.3-12.2-2-17.2-5.9c-5.2-4.1-8.5-9.5-9.3-16.2C260.2,77.1,260.1,75.7,260,74.3z M277.1,74.6c-0.2,4.6,2.1,7.6,5,9.6
		c2.9,1.9,6.1,2.1,9.4,1.3c3.3-0.8,5.8-2.8,7-6.2c0.9-2.5,1.1-5,0.7-7.6c-0.6-3.3-2.2-5.8-5.2-7.5c-2.2-1.2-4.4-1.5-6.8-1.4
		c-2.6,0.1-4.9,1-6.7,2.8C278,68,277,71,277.1,74.6z"/>
	<path class="st1" d="M139.2,95.5c0.2,3.4-2.5,6.4-5.9,7.2c-4.4,1-8-1-10.2-5.2c-1-1.8-1.6-3.8-2.5-5.6c-0.1-0.3-0.7-0.6-1-0.6
		c-4.5,0-9,0-13.4,0c-0.6,0-0.9,0.2-1.1,0.8c-0.9,2.1-1.7,4.3-2.8,6.3c-1.8,3.1-4.4,5-8.1,4.8c-4.4-0.3-7.9-3.4-7.5-7.9
		c0.2-1.9,0.9-3.8,1.5-5.6c2-5.5,4.2-11,6.3-16.5c2.1-5.4,4-10.8,6.2-16.1c2-4.7,5.7-7.1,10.8-7.2c2.3,0,4.5-0.1,6.8,0.7
		c2.8,1,5,2.7,6.1,5.4c1.7,3.7,3.1,7.5,4.6,11.3c2.2,5.7,4.4,11.3,6.5,17c1.2,3.2,2.3,6.5,3.4,9.7C139.2,94.3,139.1,94.9,139.2,95.5
		z M117,77.8c-1.3-3.5-2.6-7.1-3.9-10.7c-0.1,0-0.2,0-0.4,0c-1.3,3.5-2.6,7-3.9,10.7C111.6,77.8,114.2,77.8,117,77.8z"/>
	<path class="st1" d="M160,86.8c0,3,0.1,5.8,0,8.6c-0.1,2.8-1,5.3-3.7,6.5c-2.4,1.1-4.8,1.1-7.4,0.5c-3.3-0.7-5.2-3.9-5.2-7
		c0.1-12.4,0-24.9,0-37.3c0-4.2,2.8-7,7.1-7.1c5.8-0.1,11.5-0.1,17.3,0c5.5,0.1,10.6,1.4,14.9,4.9c3.3,2.6,5.2,6.1,5.9,10.4
		c0.6,4.4-0.3,8.4-2.7,12.1c-2.1,3.1-5.1,5.1-8.5,6.5c-3.6,1.5-7.4,2-11.3,1.9C164.3,86.8,162.2,86.8,160,86.8z M160,73.6
		c1.4,0,2.7,0,4,0c1.3,0,2.6-0.1,3.9-0.3c1.8-0.3,3.2-1.3,3.9-3c0.9-2.4-0.6-5.2-3.4-5.7c-2.7-0.5-5.5-0.4-8.3-0.5
		C160,67.4,160,70.5,160,73.6z"/>
	<path class="st1" d="M62.6,87.3c3.6,0,7,0,10.4,0c2.3,0,4.5,0.4,6.2,1.9c0.7,0.6,1.3,1.4,1.6,2.3c1.6,4.2,0.3,9.8-5.5,10.4
		c-1,0.1-2,0.2-3.1,0.2c-6.1,0-12.2,0.1-18.4,0c-2.7,0-5.2-1-6.6-3.5c-0.6-1-0.9-2.3-0.9-3.4c-0.1-12.7-0.1-25.4,0-38.1
		c0-4,2.6-6.4,6.7-6.7c1.8-0.1,3.7-0.2,5.5,0.6c2.2,1.1,3.6,2.6,3.9,5.1c0.1,1.3,0.2,2.7,0.2,4c0,8.6,0,17.2,0,25.8
		C62.6,86.3,62.6,86.7,62.6,87.3z"/>
	<path class="st1" d="M337.8,87.3c3.8,0,7.5-0.1,11.2,0c2.3,0.1,4.4,0.6,6,2.4c2.1,2.4,2.3,5.2,1.2,8c-0.9,2.4-2.8,3.8-5.4,4.2
		c-1.1,0.2-2.3,0.2-3.4,0.2c-6,0-12,0-18,0c-1.9,0-3.6-0.4-5.2-1.6c-1.6-1.2-2.5-2.8-2.5-4.8c-0.1-13.2-0.1-26.3,0-39.5
		c0-2.4,1.5-4.6,4.2-5.5c2.8-0.9,5.7-1,8.4,0.4c2.1,1.1,3.3,3,3.3,5.4c0.1,9.7,0,19.4,0,29.1C337.8,86.3,337.8,86.7,337.8,87.3z"/>
	<path class="st2" d="M277.1,74.6c-0.1-3.6,0.9-6.6,3.4-9c1.9-1.8,4.2-2.7,6.7-2.8c2.4-0.1,4.7,0.2,6.8,1.4c3,1.6,4.6,4.2,5.2,7.5
		c0.4,2.6,0.3,5.1-0.7,7.6c-1.3,3.4-3.7,5.4-7,6.2c-3.2,0.8-6.5,0.6-9.4-1.3C279.2,82.2,276.9,79.2,277.1,74.6z"/>
	<path class="st2" d="M117,77.8c-2.8,0-5.4,0-8.2,0c1.4-3.7,2.6-7.2,3.9-10.7c0.1,0,0.2,0,0.4,0C114.4,70.7,115.7,74.2,117,77.8z"/>
	<path class="st2" d="M160,73.6c0-3.1,0-6.2,0-9.5c2.8,0.1,5.6,0,8.3,0.5c2.9,0.5,4.4,3.3,3.4,5.7c-0.7,1.7-2.1,2.7-3.9,3
		c-1.3,0.2-2.6,0.2-3.9,0.3C162.7,73.6,161.4,73.6,160,73.6z"/>
</g>
</svg>
